<svg width="351" height="351" viewBox="0 0 351 351" fill="none" xmlns="http://www.w3.org/2000/svg">
    <path d="M175.5 15.082C143.772 15.082 112.757 24.4904 86.3767 42.1173C59.9958 59.744 39.4349 84.7983 27.2932 114.111C15.1515 143.423 11.9747 175.678 18.1645 206.796C24.3542 237.914 39.6326 266.498 62.0672 288.933C84.5022 311.368 113.086 326.646 144.204 332.836C175.322 339.025 207.577 335.848 236.889 323.707C266.202 311.565 291.256 291.004 308.883 264.623C326.51 238.243 335.918 207.228 335.918 175.5C335.875 132.968 318.959 92.1901 288.885 62.1155C258.81 32.0407 218.032 15.1256 175.5 15.082ZM175.5 28.793C203.094 28.7733 230.134 36.5423 253.509 51.2064C276.884 65.8706 295.646 86.8341 307.637 111.687C319.628 136.54 324.361 164.272 321.292 191.695C318.223 219.118 307.477 245.118 290.288 266.705C282.744 249.368 271.359 233.972 256.994 221.677C242.629 209.384 225.658 200.514 207.364 195.737C217.816 188.879 225.776 178.831 230.061 167.086C234.346 155.342 234.727 142.529 231.148 130.551C227.569 118.573 220.221 108.069 210.195 100.602C200.169 93.1335 188.002 89.0997 175.5 89.0997C162.999 89.0997 150.831 93.1335 140.805 100.602C130.779 108.069 123.431 118.573 119.852 130.551C116.273 142.529 116.654 155.342 120.939 167.086C125.224 178.831 133.184 188.879 143.636 195.737C125.342 200.514 108.371 209.384 94.006 221.677C79.6413 233.972 68.2569 249.368 60.712 266.705C43.5238 245.118 32.7772 219.118 29.7081 191.695C26.639 164.272 31.3721 136.54 43.363 111.687C55.3538 86.8341 74.1158 65.8706 97.4913 51.2064C120.866 36.5423 147.906 28.7733 175.5 28.793ZM175.5 191.569C166.725 191.569 158.146 188.967 150.85 184.092C143.554 179.216 137.867 172.287 134.509 164.18C131.151 156.073 130.272 147.151 131.984 138.545C133.696 129.938 137.922 122.032 144.127 115.827C150.332 109.622 158.237 105.397 166.844 103.684C175.451 101.973 184.372 102.851 192.479 106.209C200.587 109.567 207.516 115.254 212.391 122.551C217.266 129.847 219.869 138.425 219.869 147.201C219.854 158.964 215.175 170.24 206.857 178.558C198.54 186.876 187.263 191.555 175.5 191.569ZM175.5 322.207C156.023 322.231 136.738 318.362 118.777 310.828C100.817 303.293 84.5433 292.245 70.913 278.332C78.7874 256.931 93.0375 238.462 111.74 225.415C130.442 212.368 152.697 205.373 175.5 205.373C198.303 205.373 220.558 212.368 239.26 225.415C257.963 238.462 272.213 256.931 280.087 278.332C266.457 292.245 250.183 303.293 232.223 310.828C214.262 318.362 194.977 322.231 175.5 322.207Z" fill="black"/>
</svg>
