<svg width="593" height="581" viewBox="0 0 593 581" fill="none" xmlns="http://www.w3.org/2000/svg">
    <g clip-path="url(#clip0_9_25)">
        <path d="M317.376 441.361C308.479 442.725 301.971 448.421 302.84 454.082C303.709 459.744 311.624 463.227 320.524 461.862C324.086 461.365 327.478 460.022 330.416 457.946L368.038 451.692L365.527 436.821L327.989 442.133C324.564 441.032 320.924 440.767 317.376 441.361Z" fill="#FFB6B6"/>
        <path d="M479.501 395.005L464.912 425.961L391.575 450.649L330.719 453.896L329.195 439.279L395.148 425.489L462.825 393.508L479.501 395.005Z" fill="#E6E6E6"/>
        <path d="M313.111 330.244L311.111 330.288L314.934 504.022L316.934 503.978L313.111 330.244Z" fill="#3F3D56"/>
        <path d="M313.154 407.168C312.973 406.552 308.827 391.899 317.805 377.497L319.502 378.556C311.012 392.174 315.032 406.463 315.073 406.606L313.154 407.168Z" fill="#3F3D56"/>
        <path d="M318.506 378.609C318.506 378.609 315.777 359.954 340.921 354.834C346.159 353.768 351.084 353.039 355.598 352.553C360.926 351.98 363.005 359.274 358.191 361.63C351.22 365.042 344.662 369.341 341.244 374.431C331.817 388.472 318.506 378.609 318.506 378.609Z" fill="#FFAC63"/>
        <path d="M315.74 461.115L313.821 460.554C313.862 460.41 317.882 446.121 309.392 432.503L311.089 431.444C320.067 445.847 315.921 460.499 315.74 461.115Z" fill="#3F3D56"/>
        <path d="M310.388 432.556C310.388 432.556 313.117 413.901 287.973 408.781C282.735 407.714 277.811 406.986 273.297 406.5C267.968 405.926 265.889 413.221 270.703 415.577C277.674 418.989 284.232 423.287 287.65 428.378C297.077 442.418 310.388 432.556 310.388 432.556Z" fill="#FFAC63"/>
        <path d="M345.383 306.122C350.444 304.787 355.177 302.462 355.02 300.162C354.833 297.429 347.807 295.598 341.745 295.32C346.317 291.743 350.518 286.798 349.234 284.562C348.053 282.506 342.558 283.302 337.489 285.113C340.489 280.824 342.598 275.991 340.992 274.337C338.991 272.277 331.89 275.833 327.043 279.763C327.987 273.64 327.51 265.91 324.763 265.211C322.465 264.626 319.209 269.122 316.976 274.02C315.989 268.88 313.992 264 311.686 264C308.402 264 305.739 273.903 305.739 280.354C305.739 280.719 305.749 281.062 305.765 281.39C305.436 281.008 305.058 280.609 304.627 280.19C299.999 275.695 291.04 270.707 288.752 273.063C287.146 274.717 289.255 279.55 292.255 283.839C287.186 282.028 281.691 281.231 280.51 283.287C278.923 286.05 285.707 292.946 291.221 296.29C290.889 296.25 290.541 296.217 290.17 296.191C283.734 295.752 273.673 297.734 273.45 301.011C273.293 303.311 278.025 305.637 283.086 306.971C278.048 308.865 273.34 311.808 273.767 314.14C274.286 316.971 282.196 317.962 288.415 317.382C283.769 321.84 278.731 329.826 280.833 332.166C282.374 333.881 287.339 332.106 291.823 329.405C289.671 334.339 288.502 339.767 290.473 341.085C293.078 342.827 300.221 336.764 303.987 331.546C303.603 337.929 305.13 346.698 308.161 347.044C310.451 347.306 312.99 342.684 314.553 337.689C316.216 342.809 318.941 347.646 321.291 347.325C324.346 346.908 325.677 337.92 325.107 331.532C328.992 336.535 335.53 341.885 337.996 340.236C339.967 338.917 338.799 333.49 336.647 328.555C341.13 331.257 346.095 333.032 347.636 331.317C349.739 328.976 344.701 320.99 340.054 316.532C346.274 317.112 354.184 316.121 354.702 313.291C355.13 310.959 350.422 308.016 345.383 306.122ZM318.132 324.177C316.831 324.354 315.641 324.608 314.737 325.255C313.776 324.301 312.372 324.011 310.811 323.832C309.064 323.633 307.476 323.614 306.265 324.622C305.822 323.39 304.732 322.515 303.463 321.666C302.372 320.936 301.313 320.337 300.207 320.222C300.12 318.87 299.263 317.722 298.213 316.553C297.544 315.808 296.874 315.142 296.131 314.696C297.203 313.391 297.079 311.741 296.748 309.93C296.511 308.639 296.204 307.462 295.516 306.588C296.425 305.584 296.651 304.169 296.758 302.602C296.875 300.89 296.826 299.339 295.839 298.184C298.391 298.508 299.623 296.918 300.768 294.925C301.422 293.787 301.948 292.69 301.988 291.578C303.33 291.4 304.418 290.466 305.512 289.339C306.447 288.377 307.242 287.423 307.541 286.326C308.612 287.227 310.074 287.363 311.686 287.363C313.257 287.363 314.684 287.233 315.748 286.395C316.573 287.14 317.726 287.527 318.998 287.851C320.213 288.16 321.36 288.367 322.402 288.159C322.782 289.028 323.459 289.818 324.232 290.614C325.326 291.74 326.414 292.674 327.756 292.853C327.796 293.964 328.322 295.061 328.976 296.199C329.746 297.54 330.554 298.698 331.777 299.215C331.635 299.994 331.65 300.851 331.711 301.752C331.818 303.319 332.045 304.735 332.954 305.738C332.266 306.612 331.958 307.789 331.722 309.081C331.39 310.891 331.266 312.541 332.339 313.847C331.596 314.292 330.926 314.958 330.257 315.704C329.207 316.872 328.349 318.021 328.263 319.372C327.156 319.488 326.098 320.087 325.006 320.817C323.516 321.814 322.274 322.847 322.036 324.452C320.917 323.909 319.578 323.98 318.132 324.177Z" fill="#FFAC63"/>
        <path d="M314.659 327.292C326.389 327.292 335.898 317.783 335.898 306.053C335.898 294.323 326.389 284.814 314.659 284.814C302.93 284.814 293.421 294.323 293.421 306.053C293.421 317.783 302.93 327.292 314.659 327.292Z" fill="#3F3D56"/>
        <path d="M58.5092 563.597C58.5092 564.257 59.0392 564.787 59.6993 564.787H581.989C582.649 564.787 583.179 564.257 583.179 563.597C583.179 562.937 582.649 562.407 581.989 562.407H59.6993C59.0392 562.407 58.5092 562.937 58.5092 563.597Z" fill="#3F3D56"/>
        <path d="M344.239 512.546L331.142 545.674L314.192 534.118L324.208 499.449L344.239 512.546Z" fill="#FFB6B6"/>
        <path d="M289.538 500.219L254.869 533.348L268.737 547.986L304.177 520.25L289.538 500.219Z" fill="#FFB6B6"/>
        <path d="M485.998 392.359L485.613 389.662L476.753 372.328L447.477 380.032L452.87 403.915L485.998 392.359Z" fill="#FFB6B6"/>
        <path d="M473.671 507.923L474.572 519.495C474.572 519.495 478.294 568.017 448.247 571.869C418.2 575.721 405.103 579.573 387.383 549.527L359.648 500.219L343.447 519.495L321.896 502.53C321.896 502.53 337.305 442.437 349.632 440.126C351.173 439.837 352.714 439.692 354.23 439.661C364.436 439.448 374.055 444.44 380.161 452.619L415.119 499.449L427.831 493.67L473.671 507.923Z" fill="#2F2E41"/>
        <path d="M307.258 544.134L314.192 531.036L334.223 544.904C334.223 544.904 338.846 561.854 331.912 564.165C324.978 566.476 305.717 563.394 305.717 563.394C305.717 563.394 270.278 571.099 269.507 564.165C268.737 557.231 285.686 555.69 285.686 555.69L307.258 544.134Z" fill="#2F2E41"/>
        <path d="M382.76 534.888L329.216 501.15L301.865 525.643L283.375 504.071C283.375 504.071 317.274 453.993 327.289 451.682C337.305 449.371 353.484 447.83 353.484 447.83L402.792 493.285L382.76 534.888Z" fill="#2F2E41"/>
        <path d="M254.099 530.266L271.818 549.527L269.482 551.526C269.482 551.526 264.885 571.548 254.099 564.775C243.313 558.001 242.542 556.461 242.542 556.461C242.542 556.461 211.725 563.394 208.643 551.068C205.561 538.741 214.036 541.052 214.036 541.052L221.731 545.674L254.099 530.266Z" fill="#2F2E41"/>
        <path d="M456.722 388.507C470.338 388.507 481.376 377.469 481.376 363.853C481.376 350.237 470.338 339.199 456.722 339.199C443.106 339.199 432.068 350.237 432.068 363.853C432.068 377.469 443.106 388.507 456.722 388.507Z" fill="#FFB6B6"/>
        <path d="M450.944 398.908L486.383 388.121C486.383 388.121 500.251 420.48 497.94 435.118C495.629 449.756 474.572 519.495 474.572 519.495L427.831 493.67C427.831 493.67 427.06 478.262 424.749 471.328C422.438 464.394 415.119 443.207 431.298 425.487C447.477 407.767 450.944 398.908 450.944 398.908Z" fill="#E6E6E6"/>
        <path d="M104.844 155.978L102.845 156.022L111.845 565.022L113.844 564.978L104.844 155.978Z" fill="#3F3D56"/>
        <path d="M107.599 336.66C107.496 336.311 97.581 301.302 118.398 267.909L120.095 268.967C99.7471 301.608 109.417 335.756 109.518 336.098L107.599 336.66Z" fill="#3F3D56"/>
        <path d="M118.901 269.809C118.901 269.809 112.475 225.892 171.668 213.839C183.999 211.328 195.592 209.612 206.22 208.468C218.764 207.119 223.657 224.29 212.325 229.837C195.913 237.869 180.475 247.989 172.429 259.974C150.237 293.027 118.901 269.809 118.901 269.809Z" fill="#FFAC63"/>
        <path d="M111.09 463.66L109.171 463.098C109.271 462.757 118.922 428.577 98.5932 395.967L100.291 394.908C121.107 428.302 111.192 463.311 111.09 463.66Z" fill="#3F3D56"/>
        <path d="M99.7877 396.809C99.7877 396.809 106.213 352.892 47.0208 340.839C34.6891 338.328 23.096 336.612 12.4689 335.468C-0.0753241 334.119 -4.96847 351.29 6.36363 356.837C22.7751 364.869 38.213 374.989 46.2595 386.974C68.4518 420.027 99.7877 396.809 99.7877 396.809Z" fill="#FFAC63"/>
        <path d="M182.173 99.1611C194.087 96.0196 205.229 90.5457 204.859 85.1306C204.42 78.6978 187.879 74.3876 173.609 73.7317C184.372 65.3108 194.262 53.6702 191.238 48.4056C188.457 43.5655 175.522 45.4404 163.588 49.7032C170.651 39.6062 175.616 28.2286 171.835 24.3349C167.124 19.4847 150.407 27.8562 138.998 37.1098C141.219 22.6936 140.096 4.49663 133.63 2.85027C128.221 1.47295 120.554 12.0583 115.298 23.5893C112.975 11.4884 108.272 -2.28882e-05 102.844 -2.28882e-05C95.1123 -2.28882e-05 88.8442 23.3121 88.8442 38.5C88.8442 39.3585 88.867 40.1667 88.9062 40.9388C88.1301 40.0391 87.2407 39.0992 86.2264 38.1141C75.331 27.5329 54.2406 15.7882 48.8538 21.3349C45.0725 25.2286 50.0377 36.6062 57.1 46.7032C45.166 42.4403 32.2312 40.5655 29.4507 45.4056C25.7146 51.909 41.6844 68.1436 54.6654 76.0166C53.8851 75.9226 53.0653 75.8434 52.1927 75.7839C37.0402 74.75 13.3554 79.4165 12.829 87.1306C12.4595 92.5457 23.6012 98.0196 35.5158 101.161C23.6537 105.62 12.5711 112.548 13.577 118.039C14.7979 124.703 33.4192 127.035 48.0606 125.67C37.1224 136.164 25.2618 154.965 30.2115 160.474C33.8388 164.512 45.528 160.333 56.0823 153.974C51.0169 165.59 48.2659 178.368 52.9055 181.471C59.0369 185.573 75.8525 171.298 84.7185 159.015C83.8151 174.042 87.4107 194.686 94.5449 195.5C99.9376 196.116 105.913 185.235 109.594 173.476C113.508 185.529 119.924 196.916 125.455 196.161C132.647 195.18 135.782 174.019 134.441 158.982C143.586 170.759 158.977 183.355 164.783 179.471C169.423 176.368 166.672 163.59 161.606 151.974C172.161 158.333 183.85 162.512 187.477 158.474C192.427 152.965 180.566 134.164 169.628 123.67C184.269 125.035 202.891 122.702 204.111 116.039C205.117 110.548 194.035 103.62 182.173 99.1611ZM118.019 141.666C114.956 142.084 112.156 142.681 110.026 144.205C107.764 141.959 104.459 141.275 100.785 140.856C96.6712 140.386 92.9328 140.34 90.0819 142.714C89.0387 139.815 86.4737 137.755 83.4857 135.756C80.9165 134.038 78.4249 132.627 75.8203 132.355C75.6168 129.174 73.5976 126.47 71.1263 123.719C69.5505 121.965 67.974 120.396 66.2246 119.347C68.7486 116.274 68.4576 112.39 67.6766 108.128C67.1196 105.087 66.3958 102.317 64.7764 100.259C66.9169 97.8963 67.4497 94.5641 67.7015 90.8747C67.9763 86.8463 67.8621 83.1938 65.5368 80.4741C71.5459 81.2384 74.4459 77.4948 77.1412 72.8029C78.6809 70.1227 79.9189 67.5409 80.013 64.9238C83.1732 64.5042 85.7332 62.3055 88.3095 59.6527C90.5103 57.3865 92.3824 55.1426 93.0856 52.56C95.6074 54.6793 99.0482 55 102.844 55C106.542 55 109.903 54.6953 112.406 52.7205C114.349 54.4763 117.063 55.387 120.059 56.1497C122.918 56.8778 125.617 57.3647 128.071 56.8746C128.967 58.9212 130.56 60.7796 132.379 62.6527C134.955 65.3056 137.515 67.5042 140.675 67.9238C140.77 70.5409 142.008 73.1228 143.547 75.8029C145.36 78.9578 147.263 81.6857 150.142 82.9028C149.806 84.7354 149.842 86.7526 149.987 88.8747C150.239 92.5641 150.772 95.8964 152.912 98.2588C151.293 100.317 150.569 103.087 150.012 106.128C149.231 110.39 148.94 114.274 151.464 117.347C149.714 118.396 148.138 119.965 146.562 121.719C144.091 124.47 142.072 127.174 141.868 130.355C139.264 130.627 136.772 132.038 134.203 133.756C130.694 136.104 127.771 138.537 127.209 142.314C124.576 141.037 121.424 141.202 118.019 141.666Z" fill="#FFAC63"/>
        <path d="M109.844 149C137.458 149 159.844 126.614 159.844 99C159.844 71.3858 137.458 49 109.844 49C82.23 49 59.8442 71.3858 59.8442 99C59.8442 126.614 82.23 149 109.844 149Z" fill="#3F3D56"/>
        <path d="M571.812 466.252L569.812 466.296L571.963 564.022L573.963 563.978L571.812 466.252Z" fill="#3F3D56"/>
        <path d="M570.979 509.655C570.875 509.301 568.491 500.876 573.644 492.61L575.341 493.669C570.676 501.151 572.876 509.016 572.898 509.094L570.979 509.655Z" fill="#3F3D56"/>
        <path d="M574.41 493.468C574.41 493.468 572.875 482.974 587.018 480.094C589.964 479.494 592.734 479.084 595.274 478.811C598.271 478.488 599.44 482.591 596.733 483.917C592.811 485.836 589.122 488.254 587.2 491.118C581.897 499.015 574.41 493.468 574.41 493.468Z" fill="#FFAC63"/>
        <path d="M573.274 540L571.354 539.438C571.377 539.36 573.577 531.497 568.912 524.015L570.609 522.956C575.762 531.222 573.378 539.646 573.274 540Z" fill="#3F3D56"/>
        <path d="M569.843 523.813C569.843 523.813 571.378 513.319 557.235 510.439C554.289 509.839 551.519 509.429 548.979 509.156C545.982 508.834 544.813 512.937 547.52 514.262C551.442 516.181 555.131 518.599 557.053 521.463C562.356 529.36 569.843 523.813 569.843 523.813Z" fill="#FFAC63"/>
        <path d="M589.528 452.693C592.375 451.943 595.037 450.635 594.949 449.341C594.844 447.804 590.891 446.774 587.482 446.617C590.054 444.605 592.417 441.824 591.694 440.566C591.03 439.409 587.939 439.857 585.088 440.876C586.775 438.463 587.961 435.745 587.058 434.815C585.932 433.656 581.938 435.656 579.212 437.867C579.742 434.422 579.474 430.074 577.929 429.681C576.637 429.352 574.805 431.881 573.549 434.636C572.994 431.745 571.87 429 570.573 429C568.726 429 567.228 434.57 567.228 438.199C567.228 438.404 567.234 438.597 567.243 438.782C567.058 438.567 566.845 438.342 566.603 438.107C563.999 435.579 558.96 432.772 557.673 434.098C556.77 435.028 557.956 437.747 559.643 440.159C556.792 439.141 553.701 438.693 553.037 439.849C552.144 441.403 555.96 445.282 559.062 447.163C558.875 447.141 558.679 447.122 558.471 447.108C554.85 446.861 549.191 447.976 549.065 449.819C548.977 451.113 551.639 452.421 554.486 453.171C551.652 454.237 549.004 455.892 549.244 457.204C549.536 458.796 553.985 459.354 557.484 459.027C554.87 461.535 552.036 466.027 553.219 467.343C554.085 468.308 556.878 467.31 559.4 465.79C558.19 468.566 557.533 471.619 558.641 472.36C560.106 473.34 564.124 469.93 566.242 466.995C566.027 470.585 566.886 475.518 568.59 475.712C569.879 475.86 571.307 473.26 572.186 470.45C573.121 473.33 574.654 476.051 575.976 475.87C577.694 475.636 578.443 470.58 578.123 466.987C580.308 469.801 583.986 472.811 585.373 471.882C586.481 471.141 585.824 468.088 584.614 465.312C587.136 466.832 589.929 467.83 590.795 466.866C591.978 465.549 589.144 461.057 586.531 458.549C590.029 458.876 594.478 458.318 594.77 456.726C595.01 455.414 592.362 453.759 589.528 452.693ZM574.199 462.849C573.467 462.949 572.798 463.092 572.289 463.456C571.749 462.919 570.959 462.756 570.081 462.656C569.098 462.544 568.205 462.533 567.524 463.1C567.275 462.407 566.662 461.915 565.948 461.437C565.334 461.027 564.739 460.69 564.116 460.625C564.068 459.864 563.585 459.218 562.995 458.561C562.618 458.142 562.242 457.767 561.824 457.517C562.427 456.782 562.357 455.854 562.171 454.836C562.037 454.109 561.864 453.447 561.478 452.956C561.989 452.391 562.116 451.595 562.176 450.713C562.242 449.751 562.215 448.878 561.659 448.228C563.095 448.411 563.788 447.516 564.432 446.395C564.8 445.755 565.096 445.138 565.118 444.513C565.873 444.412 566.485 443.887 567.101 443.253C567.626 442.712 568.074 442.176 568.242 441.559C568.844 442.065 569.666 442.142 570.573 442.142C571.457 442.142 572.26 442.069 572.858 441.597C573.322 442.016 573.971 442.234 574.687 442.416C575.37 442.59 576.015 442.707 576.601 442.59C576.815 443.078 577.196 443.523 577.63 443.97C578.246 444.604 578.858 445.129 579.613 445.23C579.635 445.855 579.931 446.472 580.299 447.112C580.732 447.866 581.187 448.518 581.875 448.809C581.794 449.246 581.803 449.728 581.838 450.236C581.898 451.117 582.025 451.913 582.536 452.478C582.15 452.969 581.977 453.631 581.844 454.358C581.657 455.376 581.587 456.304 582.19 457.039C581.772 457.289 581.396 457.664 581.019 458.083C580.429 458.741 579.946 459.387 579.898 460.147C579.275 460.212 578.68 460.549 578.066 460.959C577.228 461.52 576.529 462.102 576.395 463.004C575.766 462.699 575.013 462.738 574.199 462.849Z" fill="#FFAC63"/>
        <path d="M572.246 464.602C578.844 464.602 584.193 459.253 584.193 452.655C584.193 446.057 578.844 440.708 572.246 440.708C565.648 440.708 560.299 446.057 560.299 452.655C560.299 459.253 565.648 464.602 572.246 464.602Z" fill="#3F3D56"/>
        <path d="M372.943 560.684C367.175 567.594 366.065 576.17 370.463 579.84C374.862 583.51 383.101 580.883 388.87 573.97C391.212 571.24 392.866 567.989 393.694 564.489L417.762 534.903L406.039 525.415L381.411 554.238C378.114 555.68 375.21 557.89 372.943 560.684Z" fill="#FFB6B6"/>
        <path d="M478.127 414.451L486.504 447.631L445.506 513.259L403.652 555.323L390.087 544.068L432.297 491.549L464.291 423.879L478.127 414.451Z" fill="#E6E6E6"/>
        <path d="M433.994 359.616C440.317 359.6 440.676 359.643 441.698 359.616C449.541 359.409 451.591 356.323 455.566 356.534C462.661 356.909 453.297 392.479 449.403 408.923C445.583 425.051 458.491 439.502 459.418 440.511C472.519 454.759 495.532 457.365 499.481 451.297C502.677 446.386 491.35 438.918 494.088 428.184C496.764 417.691 509.123 418.808 512.578 408.923C516.196 398.571 504.038 393.35 496.399 368.09C492.012 353.584 492.788 350.881 488.695 341.896C477.753 317.879 424.121 328.105 430.142 350.37C431.307 354.677 428.207 359.629 433.994 359.616Z" fill="#2F2E41"/>
    </g>
    <defs>
        <clipPath id="clip0_9_25">
            <rect width="598.253" height="581.498" fill="white"/>
        </clipPath>
    </defs>
</svg>
