<svg width="24" height="41" viewBox="0 0 24 41" fill="none" xmlns="http://www.w3.org/2000/svg">
<g clip-path="url(#clip0_157_14)">
<path d="M10.0881 10.957C9.35513 9.39719 8.92981 7.56818 8.85938 5.67326C8.85937 5.03943 8.94403 4.41181 9.1085 3.82623C9.27297 3.24065 9.51403 2.70858 9.81793 2.2604C10.1218 1.81221 10.4826 1.45669 10.8797 1.21414C11.2767 0.971582 11.7023 0.846741 12.1321 0.846741C12.5619 0.846741 12.9875 0.971582 13.3845 1.21414C13.7816 1.45669 14.1424 1.81221 14.4463 2.2604C14.7502 2.70858 14.9912 3.24065 15.1557 3.82623C15.3202 4.41181 15.4048 5.03943 15.4048 5.67326C15.3348 7.54995 14.9178 9.36259 14.1991 10.9147" stroke="#333333" stroke-width="2" stroke-linecap="round" stroke-linejoin="round"/>
<path d="M14.2393 11.0078C14.9527 9.57358 15.909 8.44068 17.0125 7.7224C17.4143 7.49723 17.8424 7.391 18.2721 7.40977C18.7018 7.42855 19.1248 7.57196 19.517 7.83183C19.9091 8.0917 20.2627 8.46293 20.5575 8.92433C20.8524 9.38572 21.0827 9.92825 21.2354 10.5209C21.3881 11.1136 21.4602 11.7449 21.4474 12.3786C21.4347 13.0123 21.3374 13.6362 21.1612 14.2145C20.985 14.7928 20.7333 15.3143 20.4204 15.7491C20.1076 16.184 19.7397 16.5237 19.3378 16.7488C18.2245 17.2719 17.0399 17.3738 15.8928 17.0452" stroke="#333333" stroke-width="2" stroke-linecap="round" stroke-linejoin="round"/>
<path d="M11.9941 21.2705C12.0154 22.724 12.2546 24.1525 12.6946 25.4535C13.1195 26.5764 13.8294 27.4043 14.6682 27.7553C15.507 28.1062 16.406 27.9514 17.1673 27.3248C17.9287 26.6983 18.4902 25.6513 18.7281 24.4143C18.9661 23.1772 18.8611 21.8515 18.4362 20.7286C17.7803 19.1967 16.8585 17.9513 15.7664 17.1214" stroke="#333333" stroke-width="2" stroke-linecap="round" stroke-linejoin="round"/>
<path d="M10.0422 11.0079C9.32696 9.55768 8.36422 8.41248 7.25177 7.68856C6.847 7.43925 6.41237 7.31248 5.97371 7.3158C5.53506 7.31912 5.10134 7.45245 4.69832 7.70788C4.2953 7.9633 3.93121 8.33561 3.62769 8.80267C3.32417 9.26972 3.08742 9.822 2.9315 10.4267C2.77557 11.0314 2.70367 11.6761 2.72006 12.3226C2.73644 12.969 2.84079 13.604 3.02688 14.1899C3.21298 14.7757 3.47703 15.3003 3.80335 15.7327C4.12967 16.165 4.51159 16.4962 4.92641 16.7065C6.08383 17.2457 7.31626 17.3332 8.50345 16.9606" stroke="#333333" stroke-width="2" stroke-linecap="round" stroke-linejoin="round"/>
<path d="M11.8907 21.1012C11.6994 22.9033 11.1906 24.5998 10.4151 26.0208C10.1324 26.5453 9.78011 26.9791 9.37973 27.2956C8.97935 27.6121 8.53936 27.8047 8.08672 27.8616C7.63408 27.9184 7.17834 27.8383 6.74744 27.6262C6.31654 27.4141 5.91955 27.0744 5.58082 26.628C5.24209 26.1816 4.96876 25.6378 4.77758 25.0301C4.58639 24.4224 4.48139 23.7634 4.46901 23.0937C4.45663 22.424 4.53713 21.7577 4.70557 21.1355C4.87402 20.5133 5.12685 19.9484 5.44859 19.4754C6.25066 18.2959 7.23626 17.4238 8.3194 16.9351" stroke="#333333" stroke-width="2" stroke-linecap="round" stroke-linejoin="round"/>
<path d="M12.1322 21.1012C14.1997 21.1012 15.8758 18.6294 15.8758 15.5803C15.8758 12.5312 14.1997 10.0594 12.1322 10.0594C10.0647 10.0594 8.38867 12.5312 8.38867 15.5803C8.38867 18.6294 10.0647 21.1012 12.1322 21.1012Z" stroke="#333333" stroke-width="2" stroke-linecap="round" stroke-linejoin="round"/>
<path d="M12.0283 21.5245V40.1532" stroke="#333333" stroke-width="2" stroke-linecap="round" stroke-linejoin="round"/>
<path d="M18.8727 32.3376L12 37.8585" stroke="#333333" stroke-width="2" stroke-linecap="round" stroke-linejoin="round"/>
<path d="M19.6653 36.0888C17.3687 37.9517 14.538 37.2234 13.6251 36.9355C13.5862 36.9235 13.5495 36.8991 13.5175 36.8641C13.4856 36.8291 13.4591 36.7843 13.44 36.7328C13.421 36.6813 13.4096 36.6243 13.4069 36.5658C13.4042 36.5072 13.4101 36.4485 13.4242 36.3936C13.74 35.0896 14.8481 31.2199 17.1677 29.3571C19.4873 27.4942 22.3007 28.2224 23.2079 28.5103C23.2471 28.5237 23.2839 28.549 23.3161 28.5848C23.3482 28.6205 23.3748 28.6658 23.3943 28.7177C23.4138 28.7695 23.4257 28.8269 23.4292 28.886C23.4327 28.9451 23.4277 29.0046 23.4146 29.0607C23.0931 30.3478 21.9849 34.2259 19.6653 36.0888Z" stroke="#333333" stroke-width="2" stroke-linecap="round" stroke-linejoin="round"/>
<path d="M5.13281 32.3376L11.9998 37.8585" stroke="#333333" stroke-width="2" stroke-linecap="round" stroke-linejoin="round"/>
<path d="M4.33473 36.0888C6.66009 37.9517 9.46775 37.2234 10.3749 36.9355C10.4139 36.9232 10.4507 36.8988 10.4827 36.8639C10.5148 36.8291 10.5415 36.7845 10.5611 36.7333C10.5806 36.682 10.5926 36.6253 10.5961 36.5667C10.5997 36.5081 10.5947 36.4491 10.5816 36.3936C10.2658 35.0896 9.1577 31.2199 6.83234 29.3571C4.50698 27.4942 1.72229 28.197 0.792148 28.5018C0.752996 28.515 0.716206 28.5403 0.684248 28.5762C0.652291 28.612 0.625907 28.6576 0.60687 28.7097C0.587834 28.7618 0.576585 28.8194 0.573881 28.8785C0.571177 28.9375 0.577079 28.9968 0.591191 29.0522C0.906981 30.3478 2.01512 34.2259 4.33473 36.0888Z" stroke="#333333" stroke-width="2" stroke-linecap="round" stroke-linejoin="round"/>
</g>
<defs>
<clipPath id="clip0_157_14">
<rect width="24" height="41" fill="white"/>
</clipPath>
</defs>
</svg>
